Simulation
nRows=40
nColumns=15
endheader
time  TH_x TH_y TH_z SC_y  SC_z  SC_x  AC_y  AC_z  AC_x  GH_y  GH_z  GH_yy  EL_x  PS_y
0.0  0.000000  0.000000  0.000000  -40.97484877243665  6.293857566463187  5.290427962726946  48.54584157972155  1.1569324858742036  2.673508353596498  -64.42800512597225  2.7213529971491988  85.20717700240138  22.578363278813207  120.000000
0.05745  0.000000  0.000000  0.000000  -40.25305523519625  5.002887509221976  3.2630700751830988  48.46234412384428  2.280910468325348  2.8645626811235196  -46.32264482046124  4.784065348969647  66.49910757362755  21.99736712191386  120.000000
0.1149  0.000000  0.000000  0.000000  -39.58426339903631  3.6057897242961054  1.3065002076475831  48.481040116975684  3.258245542977229  3.133796229473315  -38.637932922663325  6.821264683516244  58.20282114145785  21.60546285683178  120.000000
0.17235  0.000000  0.000000  0.000000  -39.04662006444893  2.2561785141333757  -0.5428960172343303  48.59104900888979  4.114772974288384  3.4718502181124427  -33.5957319550792  8.759935329271414  52.53133392136918  21.476208428238095  120.000000
0.2298  0.000000  0.000000  0.000000  -38.70638014595743  1.0755583591564508  -2.2392887060697113  48.73844450756061  4.887685319743501  3.882832195377463  -29.559741543710853  10.676003681238807  47.850712446766636  21.60671163668128  120.000000
0.28725  0.000000  0.000000  0.000000  -38.59527572960438  0.1543728971816318  -3.7442743457866  48.879129553934746  5.615734644795927  4.361608562086806  -26.05947745003633  12.660884403233794  43.692544127572845  21.933191312458938  120.000000
0.3447  0.000000  0.000000  0.000000  -38.74169158032382  -0.4310571950454103  -5.025387625669287  48.983989286530196  6.3335054494686664  4.895433392330663  -22.907638295067784  14.78833538165179  39.85647710794806  22.356653280239044  120.000000
0.40215  0.000000  0.000000  0.000000  -39.16675502882613  -0.6295643591250646  -6.043721020167782  49.03294711827675  7.06626354072996  5.48315761368748  -20.028706400606538  17.099323577889983  36.23997181595936  22.769609830303473  120.000000
0.4596  0.000000  0.000000  0.000000  -39.86815536914992  -0.41232732722109633  -6.759946697956236  49.029497628109986  7.831297132129548  6.12464306249611  -17.405015212027887  19.59063608079111  32.787680111359506  23.082851854756502  120.000000
0.51705  0.000000  0.000000  0.000000  -40.80090334026993  0.22116038938084537  -7.135136977920496  48.993893339780804  8.638325681531528  6.8227797269463055  -15.087941635750974  22.20212637434821  29.515645655313314  23.241626864753126  120.000000
0.5745  0.000000  0.000000  0.000000  -41.891718823426686  1.2274576894280764  -7.132990307351558  48.94614418424021  9.492049128720149  7.588882676980951  -13.151165298870298  24.82040696544943  26.471326867349312  23.22812031883907  120.000000
0.63195  0.000000  0.000000  0.000000  -43.06032957297776  2.5427277266369206  -6.723938508362915  48.911582692814726  10.39511627090478  8.429696439906715  -11.635862949637499  27.309321943145857  23.68473099967142  23.054706833446737  120.000000
0.6894  0.000000  0.000000  0.000000  -44.248875381018976  4.0897478581103455  -5.884438920364445  48.91123591761195  11.345966452483934  9.344507408589203  -10.539590099495646  29.55026602714435  21.15310709626168  22.74695038352903  120.000000
0.74685  0.000000  0.000000  0.000000  -45.42598384545934  5.784486706653676  -4.601610490764125  48.96476783046306  12.327020467462326  10.33000750626497  -9.814923151913396  31.464055706688892  18.839529935524975  22.33526985456315  120.000000
0.8043  0.000000  0.000000  0.000000  -46.58525584186664  7.544045686986363  -2.8781148017768987  49.08616996318271  13.307572704161696  11.38483692069227  -9.379508891206607  33.02251096325683  16.683068442915832  21.85573121306139  120.000000
0.86175  0.000000  0.000000  0.000000  -47.73076102071579  9.292912052481025  -0.7380235168145227  49.274336218505915  14.253603519382997  12.5053032141952  -9.152210651047984  34.2505846390747  14.633986132227951  21.342890973214033  120.000000
0.9192  0.000000  0.000000  0.000000  -48.874694323207954  10.965537008997075  1.7700515835677118  49.514088232830346  15.134131656339497  13.681948547791562  -9.067688316894534  35.214158217236495  12.673834303805224  20.828935573469117  120.000000
0.97665  0.000000  0.000000  0.000000  -50.022916529074095  12.50149081423984  4.572299752240378  49.7809334517709  15.922304642954495  14.902286531015775  -9.083849955455259  36.003937463944766  10.827546897007663  20.336662662790456  120.000000
1.0341  0.000000  0.000000  0.000000  -51.17170134951206  13.85029354981937  7.57175451217402  50.05425495590525  16.594338900816425  16.14746710232907  -9.173947700844026  36.71859026861301  9.157361335616818  19.87854496734678  120.000000
1.09155  0.000000  0.000000  0.000000  -52.30582174189073  14.976935741845011  10.654065607443464  50.32442260454769  17.128921443897557  17.391857348996442  -9.319549717805433  37.45186105362234  7.744315606418327  19.45488015786153  120.000000
1.149  0.000000  0.000000  0.000000  -53.40298536500772  15.867263866467031  13.698862279680988  50.59616820540175  17.50925455453377  18.601886887469774  -9.498319776027381  38.2760220097645  6.654680328440068  19.06002876527929  120.000000
1.20645  0.000000  0.000000  0.000000  -54.43791430120729  16.530075116186396  16.590986314042677  50.88618648362246  17.729670355776303  19.735515315186316  -9.677497334453804  39.22889441095032  5.90908813046312  18.688592539573783  120.000000
1.2639  0.000000  0.000000  0.000000  -55.38514371708319  16.99037771876954  19.231377251966297  51.210063150023075  17.80065804139732  20.744980867971908  -9.820072487760063  40.30320884064184  5.469874617644693  18.33908200571462  120.000000
1.32135  0.000000  0.000000  0.000000  -56.22025852792135  17.279823441916065  21.54229537993106  51.57044805466769  17.749303006992974  21.58180838542785  -9.894930748071834  41.44639246974714  5.249439156107042  18.01504314119707  120.000000
1.3788  0.000000  0.000000  0.000000  -56.91450506076735  17.43016821888564  23.466836887589874  51.94857693423276  17.61382320116942  22.2054913655501  -9.88359121771835  42.56976062916365  5.132742418005839  17.723559100390588  120.000000
1.43625  0.000000  0.000000  0.000000  -57.434499860312044  17.470060119051993  24.96323382134861  52.307859774104976  17.434064600385454  22.589185701114555  -9.779957466604309  43.56593150723947  5.003522120785369  17.47405067084501  120.000000
1.4937  0.000000  0.000000  0.000000  -57.746037966113995  17.427528914093525  25.996395197832374  52.603995030942905  17.241650959815132  22.719556443061176  -9.589457683522088  44.32894309607714  4.764782716686266  17.275286282387366  120.000000
1.55115  0.000000  0.000000  0.000000  -57.823157440866545  17.32996040175437  26.531620173424827  52.801602772149636  17.053528738806428  22.59294874949476  -9.32505396827974  44.77232799703487  4.349478140699755  17.134266511040103  120.000000
1.6086  0.000000  0.000000  0.000000  -57.65415295124099  17.203758057915717  26.533318063391114  52.888016400392104  16.869106855547976  22.213730603418085  -9.001305235803649  44.84302098105537  3.7194652942085935  17.054860813852354  120.000000
1.66605  0.000000  0.000000  0.000000  -57.24411288786958  17.066225474850214  25.970498580254354  52.87659977989617  16.67322536783809  21.595754745713357  -8.627502972159123  44.53047565522404  2.861362960093896  17.036984736263104  120.000000
1.7235  0.000000  0.000000  0.000000  -56.61192603675397  16.91382449761792  24.827984728530033  52.79690632450327  16.442201940623  20.76641085293272  -8.20245719787924  43.868186980025186  1.7819906848907963  17.073665296858934  120.000000
1.78095  0.000000  0.000000  0.000000  -55.78659810017975  16.71467612881576  23.11787832124969  52.68002277575804  16.15140205102469  19.76881918770234  -7.714300179272115  42.92827952668416  0.5079371903138692  17.148290076563384  120.000000
1.8384  0.000000  0.000000  0.000000  -54.80478554809845  16.41158592286425  20.88679825416448  52.54665461052882  15.782448137003584  18.65805036479043  -7.147254549284367  41.80587192488909  -0.9140770303269052  17.23621060021313  120.000000
1.89585  0.000000  0.000000  0.000000  -53.71010270475627  15.937702779466639  18.216373248644654  52.402835104356036  15.328546024750882  17.493499273933054  -6.493809910243589  40.59773491001681  -2.417004915969997  17.3101844125097  120.000000
1.9533  0.000000  0.000000  0.000000  -52.55291123581216  15.235224432976882  15.217028968978653  52.240478673239274  14.798156866534297  16.32898210697411  -5.7678159724151925  39.382772367897  -3.918827171412408  17.348609541345684  120.000000
2.01075  0.000000  0.000000  0.000000  -51.38846697312744  14.272829904314875  12.017908604776666  52.04077143652003  14.214435986547413  15.205931131881108  -5.010616402568163  38.206160030828386  -5.33354447564784  17.340756696130327  120.000000
2.0682  0.000000  0.000000  0.000000  -50.26941070966759  13.05590480279689  8.752927036239143  51.78090942906452  13.61256157130138  14.15074183221761  -4.283716256988803  37.07220024693144  -6.588908582048076  17.286805153038117  120.000000
2.1256500000000003  0.000000  0.000000  0.000000  -49.23422764241462  11.626500039640092  5.547733916542816  51.44280079611571  13.033656375030803  13.177041720870248  -3.6516782070561407  35.945795513154366  -7.638271948878153  17.19267584276394  120.000000
2.1831  0.000000  0.000000  0.000000  -48.29511625078757  10.053573913456061  2.5085119466868178  51.02209652725417  12.517718340498996  12.290944874994624  -3.1663679248010426  34.76102219197445  -8.457679407249396  17.061628508102135  120.000000
2.24055  0.000000  0.000000  0.000000  -47.43324538849279  8.418100847680103  -0.2840028355102332  50.53179079542348  12.096045993808229  11.494761519642585  -2.8656507037181664  33.434137484962065  -9.021445939917001  16.88658825010917  120.000000
